<svg id="visual" viewBox="0 0 900 600" width="900" height="600" xmlns="http://www.w3.org/2000/svg" xmlns:xlink="http://www.w3.org/1999/xlink" version="1.1"><g stroke-width="2" stroke-linejoin="bevel"><path d="M436 299L443 214L329.5 203Z" fill="#0b0d0e" stroke="#0e1011"></path><path d="M329.5 203L345.5 315L436 299Z" fill="#0b0d0e" stroke="#0e1011"></path><path d="M345.5 315L454 392L436 299Z" fill="#0b0d0e" stroke="#0e1011"></path><path d="M554.5 315L558.5 205L443 214Z" fill="#0b0d0e" stroke="#0e1011"></path><path d="M229 304L332.5 402L345.5 315Z" fill="#0b0d0e" stroke="#0e1011"></path><path d="M345.5 315L332.5 402L454 392Z" fill="#0b0d0e" stroke="#0e1011"></path><path d="M443 214L347.5 95L329.5 203Z" fill="#0b0d0e" stroke="#0e1011"></path><path d="M212 194L229 304L329.5 203Z" fill="#0b0d0e" stroke="#0e1011"></path><path d="M329.5 203L229 304L345.5 315Z" fill="#0b0d0e" stroke="#0e1011"></path><path d="M558.5 205L442 85L443 214Z" fill="#0b0d0e" stroke="#0e1011"></path><path d="M443 214L442 85L347.5 95Z" fill="#0b0d0e" stroke="#0e1011"></path><path d="M228 101L212 194L329.5 203Z" fill="#0b0d0e" stroke="#0e1011"></path><path d="M554.5 315L443 214L436 299Z" fill="#0b0d0e" stroke="#0e1011"></path><path d="M454 392L554.5 315L436 299Z" fill="#0b0d0e" stroke="#0e1011"></path><path d="M229 304L239 409L332.5 402Z" fill="#0b0d0e" stroke="#0e1011"></path><path d="M116.5 391L239 409L229 304Z" fill="#0b0d0e" stroke="#0e1011"></path><path d="M347.5 95L228 101L329.5 203Z" fill="#0b0d0e" stroke="#0e1011"></path><path d="M329.5 0L228 101L347.5 95Z" fill="#0b0d0e" stroke="#0e1011"></path><path d="M454 392L565.5 408L554.5 315Z" fill="#0b0d0e" stroke="#0e1011"></path><path d="M679 296L676 215L558.5 205Z" fill="#0b0d0e" stroke="#0e1011"></path><path d="M454 487L565.5 408L454 392Z" fill="#0b0d0e" stroke="#0e1011"></path><path d="M454 487L454 392L332.5 402Z" fill="#0b0d0e" stroke="#0e1011"></path><path d="M677 99L563.5 88L558.5 205Z" fill="#0b0d0e" stroke="#0e1011"></path><path d="M558.5 205L563.5 88L442 85Z" fill="#0b0d0e" stroke="#0e1011"></path><path d="M322.5 505L454 487L332.5 402Z" fill="#0b0d0e" stroke="#0e1011"></path><path d="M461 0L329.5 0L442 85Z" fill="#0b0d0e" stroke="#0e1011"></path><path d="M442 85L329.5 0L347.5 95Z" fill="#0b0d0e" stroke="#0e1011"></path><path d="M239 409L322.5 505L332.5 402Z" fill="#0b0d0e" stroke="#0e1011"></path><path d="M563.5 88L461 0L442 85Z" fill="#0b0d0e" stroke="#0e1011"></path><path d="M97.5 88L122.5 184L228 101Z" fill="#0b0d0e" stroke="#0e1011"></path><path d="M228 101L122.5 184L212 194Z" fill="#0b0d0e" stroke="#0e1011"></path><path d="M212 194L115.5 305L229 304Z" fill="#0b0d0e" stroke="#0e1011"></path><path d="M122.5 184L115.5 305L212 194Z" fill="#0b0d0e" stroke="#0e1011"></path><path d="M239 409L221 509L322.5 505Z" fill="#0b0d0e" stroke="#0e1011"></path><path d="M329.5 0L230 0L228 101Z" fill="#0b0d0e" stroke="#0e1011"></path><path d="M679 296L558.5 205L554.5 315Z" fill="#0b0d0e" stroke="#0e1011"></path><path d="M558.5 600L564.5 489L454 487Z" fill="#0b0d0e" stroke="#0e1011"></path><path d="M454 487L564.5 489L565.5 408Z" fill="#0b0d0e" stroke="#0e1011"></path><path d="M565.5 408L679 296L554.5 315Z" fill="#0b0d0e" stroke="#0e1011"></path><path d="M115.5 305L116.5 391L229 304Z" fill="#0b0d0e" stroke="#0e1011"></path><path d="M683 415L679 296L565.5 408Z" fill="#0b0d0e" stroke="#0e1011"></path><path d="M116.5 391L221 509L239 409Z" fill="#0b0d0e" stroke="#0e1011"></path><path d="M563.5 88L568.5 0L461 0Z" fill="#0b0d0e" stroke="#0e1011"></path><path d="M673 0L568.5 0L563.5 88Z" fill="#0b0d0e" stroke="#0e1011"></path><path d="M116.5 0L97.5 88L228 101Z" fill="#0b0d0e" stroke="#0e1011"></path><path d="M122.5 184L0 210L115.5 305Z" fill="#0b0d0e" stroke="#0e1011"></path><path d="M0 390L98.5 500L116.5 391Z" fill="#0b0d0e" stroke="#0e1011"></path><path d="M791.5 184L677 99L676 215Z" fill="#0b0d0e" stroke="#0e1011"></path><path d="M676 215L677 99L558.5 205Z" fill="#0b0d0e" stroke="#0e1011"></path><path d="M676 492L683 415L565.5 408Z" fill="#0b0d0e" stroke="#0e1011"></path><path d="M679 296L781.5 310L676 215Z" fill="#0b0d0e" stroke="#0e1011"></path><path d="M220 600L350.5 600L322.5 505Z" fill="#0b0d0e" stroke="#0e1011"></path><path d="M322.5 505L350.5 600L454 487Z" fill="#0b0d0e" stroke="#0e1011"></path><path d="M350.5 600L443 600L454 487Z" fill="#0b0d0e" stroke="#0e1011"></path><path d="M564.5 489L676 492L565.5 408Z" fill="#0b0d0e" stroke="#0e1011"></path><path d="M230 0L116.5 0L228 101Z" fill="#0b0d0e" stroke="#0e1011"></path><path d="M0 390L116.5 391L115.5 305Z" fill="#0b0d0e" stroke="#0e1011"></path><path d="M116.5 391L98.5 500L221 509Z" fill="#0b0d0e" stroke="#0e1011"></path><path d="M221 509L220 600L322.5 505Z" fill="#0b0d0e" stroke="#0e1011"></path><path d="M663 600L676 492L564.5 489Z" fill="#0b0d0e" stroke="#0e1011"></path><path d="M106.5 600L220 600L221 509Z" fill="#0b0d0e" stroke="#0e1011"></path><path d="M0 105L122.5 184L97.5 88Z" fill="#0b0d0e" stroke="#0e1011"></path><path d="M0 105L0 210L122.5 184Z" fill="#0b0d0e" stroke="#0e1011"></path><path d="M677 99L673 0L563.5 88Z" fill="#0b0d0e" stroke="#0e1011"></path><path d="M0 210L0 302L115.5 305Z" fill="#0b0d0e" stroke="#0e1011"></path><path d="M443 600L558.5 600L454 487Z" fill="#0b0d0e" stroke="#0e1011"></path><path d="M782.5 393L679 296L683 415Z" fill="#0b0d0e" stroke="#0e1011"></path><path d="M782.5 393L781.5 310L679 296Z" fill="#0b0d0e" stroke="#0e1011"></path><path d="M677 99L777.5 88L673 0Z" fill="#0b0d0e" stroke="#0e1011"></path><path d="M0 302L0 390L115.5 305Z" fill="#0b0d0e" stroke="#0e1011"></path><path d="M0 0L0 105L97.5 88Z" fill="#0b0d0e" stroke="#0e1011"></path><path d="M781.5 310L791.5 184L676 215Z" fill="#0b0d0e" stroke="#0e1011"></path><path d="M795.5 494L782.5 393L683 415Z" fill="#0b0d0e" stroke="#0e1011"></path><path d="M781.5 310L900 290L791.5 184Z" fill="#0b0d0e" stroke="#0e1011"></path><path d="M791.5 184L777.5 88L677 99Z" fill="#0b0d0e" stroke="#0e1011"></path><path d="M98.5 500L106.5 600L221 509Z" fill="#0b0d0e" stroke="#0e1011"></path><path d="M0 508L106.5 600L98.5 500Z" fill="#0b0d0e" stroke="#0e1011"></path><path d="M558.5 600L663 600L564.5 489Z" fill="#0b0d0e" stroke="#0e1011"></path><path d="M676 492L795.5 494L683 415Z" fill="#0b0d0e" stroke="#0e1011"></path><path d="M116.5 0L0 0L97.5 88Z" fill="#0b0d0e" stroke="#0e1011"></path><path d="M0 390L0 508L98.5 500Z" fill="#0b0d0e" stroke="#0e1011"></path><path d="M790.5 600L795.5 494L676 492Z" fill="#0b0d0e" stroke="#0e1011"></path><path d="M900 396L900 290L781.5 310Z" fill="#0b0d0e" stroke="#0e1011"></path><path d="M900 98L777.5 88L791.5 184Z" fill="#0b0d0e" stroke="#0e1011"></path><path d="M900 98L799.5 0L777.5 88Z" fill="#0b0d0e" stroke="#0e1011"></path><path d="M777.5 88L799.5 0L673 0Z" fill="#0b0d0e" stroke="#0e1011"></path><path d="M0 508L0 600L106.5 600Z" fill="#0b0d0e" stroke="#0e1011"></path><path d="M900 396L781.5 310L782.5 393Z" fill="#0b0d0e" stroke="#0e1011"></path><path d="M900 290L900 194L791.5 184Z" fill="#0b0d0e" stroke="#0e1011"></path><path d="M795.5 494L900 396L782.5 393Z" fill="#0b0d0e" stroke="#0e1011"></path><path d="M663 600L790.5 600L676 492Z" fill="#0b0d0e" stroke="#0e1011"></path><path d="M900 506L900 396L795.5 494Z" fill="#0b0d0e" stroke="#0e1011"></path><path d="M900 194L900 98L791.5 184Z" fill="#0b0d0e" stroke="#0e1011"></path><path d="M900 98L900 0L799.5 0Z" fill="#0b0d0e" stroke="#0e1011"></path><path d="M790.5 600L900 506L795.5 494Z" fill="#0b0d0e" stroke="#0e1011"></path><path d="M790.5 600L900 600L900 506Z" fill="#0b0d0e" stroke="#0e1011"></path></g></svg>